<?xml version="1.0" encoding="UTF-8"?>
<svg width="100" height="100" viewBox="0 0 100 100" xmlns="http://www.w3.org/2000/svg">
  <!-- 背景圆 -->
  <circle cx="50" cy="50" r="48" fill="#E6F0FF" />
  
  <!-- 巫师帽 -->
  <path d="M30 40 L50 10 L70 40 Z" fill="#5D4DB3" />
  <path d="M25 40 L75 40 L70 45 L30 45 Z" fill="#7B68EE" />
  <circle cx="50" cy="25" r="3" fill="#FFD700" /> <!-- 帽子上的星星 -->
  
  <!-- 巫师脸 -->
  <circle cx="50" cy="55" r="15" fill="#FFE0B2" />
  <circle cx="43" cy="52" r="2" fill="#333" /> <!-- 左眼 -->
  <circle cx="57" cy="52" r="2" fill="#333" /> <!-- 右眼 -->
  <path d="M45 60 Q50 63 55 60" stroke="#333" stroke-width="1.5" fill="none" /> <!-- 微笑 -->
  
  <!-- 巫师胡子 -->
  <path d="M40 58 Q35 65 30 60" stroke="#CCCCCC" stroke-width="1.5" fill="none" />
  <path d="M45 62 Q50 70 55 62" stroke="#CCCCCC" stroke-width="1.5" fill="none" />
  <path d="M60 58 Q65 65 70 60" stroke="#CCCCCC" stroke-width="1.5" fill="none" />
  
  <!-- 巫师长袍 -->
  <path d="M35 70 L30 90 L70 90 L65 70" fill="#5D4DB3" />
  <path d="M35 70 Q50 75 65 70 L65 80 Q50 85 35 80 Z" fill="#7B68EE" />
  
  <!-- 巫师手持魔杖 -->
  <line x1="70" y1="65" x2="85" y2="55" stroke="#8B4513" stroke-width="2" />
  <circle cx="85" cy="55" r="3" fill="#FFD700" />
  
  <!-- 数学符号 -->
  <text x="40" y="35" font-family="Arial" font-size="6" fill="#FFD700">π</text>
  <text x="55" y="35" font-family="Arial" font-size="6" fill="#FFD700">∑</text>
  <text x="40" y="85" font-family="Arial" font-size="8" fill="#FFFFFF">√</text>
  <text x="55" y="85" font-family="Arial" font-size="8" fill="#FFFFFF">∞</text>
</svg>
